<svg xmlns="http://www.w3.org/2000/svg" xmlns:xlink="http://www.w3.org/1999/xlink" width="500" zoomAndPan="magnify" viewBox="0 0 375 374.999991" height="500" preserveAspectRatio="xMidYMid meet" version="1.0"><defs><clipPath id="4dfd5700a2"><path d="M 98.578125 86 L 276.328125 86 L 276.328125 288 L 98.578125 288 Z M 98.578125 86 " clip-rule="nonzero"/></clipPath><clipPath id="3e6714b195"><path d="M 115 37.5 L 149 37.5 L 149 72 L 115 72 Z M 115 37.5 " clip-rule="nonzero"/></clipPath><clipPath id="392c5f39ed"><path d="M 153 37.5 L 185 37.5 L 185 72 L 153 72 Z M 153 37.5 " clip-rule="nonzero"/></clipPath><clipPath id="eaa3c1b013"><path d="M 189 37.5 L 228 37.5 L 228 72 L 189 72 Z M 189 37.5 " clip-rule="nonzero"/></clipPath><clipPath id="784816ae36"><path d="M 232 37.5 L 261 37.5 L 261 72 L 232 72 Z M 232 37.5 " clip-rule="nonzero"/></clipPath></defs><rect x="-37.5" width="450" fill="#ffffff" y="-37.499999" height="449.999989" fill-opacity="1"/><rect x="-37.5" width="450" fill="#f2f2f2" y="-37.499999" height="449.999989" fill-opacity="1"/><g clip-path="url(#4dfd5700a2)"><path fill="#e44d26" d="M 276.363281 86.785156 L 260.175781 268.113281 L 187.417969 288.28125 L 114.863281 268.140625 L 98.695312 86.785156 L 276.359375 86.78125 L 276.367188 86.78125 Z M 276.363281 86.785156 " fill-opacity="1" fill-rule="nonzero"/></g><path fill="#f16529" d="M 187.53125 272.867188 L 246.324219 256.570312 L 260.15625 101.617188 L 187.53125 101.613281 Z M 187.53125 272.867188 " fill-opacity="1" fill-rule="nonzero"/><path fill="#ebebeb" d="M 156.0625 146.097656 L 187.53125 146.097656 L 187.53125 123.851562 L 131.757812 123.851562 L 132.289062 129.820312 L 137.753906 191.117188 L 187.53125 191.117188 L 187.53125 168.878906 L 158.097656 168.878906 Z M 156.0625 146.097656 " fill-opacity="1" fill-rule="nonzero"/><path fill="#ebebeb" d="M 161.078125 202.238281 L 138.75 202.238281 L 141.863281 237.167969 L 187.425781 249.8125 L 187.53125 249.785156 L 187.53125 226.644531 L 187.433594 226.671875 L 162.660156 219.976562 Z M 161.078125 202.238281 " fill-opacity="1" fill-rule="nonzero"/><g clip-path="url(#3e6714b195)"><path fill="#f2f2f2" d="M 115.226562 37.5 L 126.527344 37.5 L 126.527344 48.667969 L 136.867188 48.667969 L 136.867188 37.5 L 148.171875 37.5 L 148.171875 71.320312 L 136.867188 71.320312 L 136.867188 59.992188 L 126.527344 59.992188 L 126.527344 71.320312 L 115.226562 71.320312 Z M 115.226562 37.5 " fill-opacity="1" fill-rule="nonzero"/></g><g clip-path="url(#392c5f39ed)"><path fill="#f2f2f2" d="M 163.035156 48.714844 L 153.085938 48.714844 L 153.085938 37.5 L 184.296875 37.5 L 184.296875 48.714844 L 174.339844 48.714844 L 174.339844 71.320312 L 163.039062 71.320312 L 163.039062 48.714844 Z M 163.035156 48.714844 " fill-opacity="1" fill-rule="nonzero"/></g><g clip-path="url(#eaa3c1b013)"><path fill="#f2f2f2" d="M 189.25 37.5 L 201.035156 37.5 L 208.285156 49.382812 L 215.527344 37.5 L 227.320312 37.5 L 227.320312 71.320312 L 216.0625 71.320312 L 216.0625 54.554688 L 208.285156 66.582031 L 208.089844 66.582031 L 200.308594 54.554688 L 200.308594 71.320312 L 189.25 71.320312 Z M 189.25 37.5 " fill-opacity="1" fill-rule="nonzero"/></g><g clip-path="url(#784816ae36)"><path fill="#f2f2f2" d="M 232.945312 37.5 L 244.25 37.5 L 244.25 60.140625 L 260.148438 60.140625 L 260.148438 71.320312 L 232.945312 71.320312 Z M 232.945312 37.5 " fill-opacity="1" fill-rule="nonzero"/></g><path fill="#ffffff" d="M 187.453125 191.117188 L 214.84375 191.117188 L 212.261719 219.964844 L 187.453125 226.664062 L 187.453125 249.800781 L 233.050781 237.167969 L 233.382812 233.40625 L 238.613281 174.847656 L 239.160156 168.878906 L 187.453125 168.878906 Z M 187.453125 191.117188 " fill-opacity="1" fill-rule="nonzero"/><path fill="#ffffff" d="M 187.453125 146.042969 L 187.453125 146.097656 L 241.179688 146.097656 L 241.625 141.097656 L 242.640625 129.820312 L 243.167969 123.851562 L 187.453125 123.851562 Z M 187.453125 146.042969 " fill-opacity="1" fill-rule="nonzero"/></svg>