<svg xmlns="http://www.w3.org/2000/svg" xmlns:xlink="http://www.w3.org/1999/xlink" width="500" zoomAndPan="magnify" viewBox="0 0 375 374.999991" height="500" preserveAspectRatio="xMidYMid meet" version="1.0"><defs><clipPath id="331887b781"><path d="M 83.671875 83.671875 L 291.421875 83.671875 L 291.421875 291.421875 L 83.671875 291.421875 Z M 83.671875 83.671875 " clip-rule="nonzero"/></clipPath></defs><rect x="-37.5" width="450" fill="#ffffff" y="-37.499999" height="449.999989" fill-opacity="1"/><rect x="-37.5" width="450" fill="#f2f2f2" y="-37.499999" height="449.999989" fill-opacity="1"/><g clip-path="url(#331887b781)"><path fill="#563d7c" d="M 83.671875 264.632812 C 83.671875 279.425781 95.664062 291.421875 110.457031 291.421875 L 264.632812 291.421875 C 279.425781 291.421875 291.421875 279.425781 291.421875 264.632812 L 291.421875 110.460938 C 291.421875 95.664062 279.425781 83.671875 264.632812 83.671875 L 110.457031 83.671875 C 95.664062 83.671875 83.671875 95.664062 83.671875 110.457031 Z M 83.671875 264.632812 " fill-opacity="1" fill-rule="nonzero"/></g><path fill="#ffffff" d="M 169.824219 175.566406 L 169.824219 146.144531 L 195.71875 146.144531 C 198.183594 146.144531 200.5625 146.351562 202.851562 146.761719 C 205.140625 147.175781 207.167969 147.90625 208.929688 148.964844 C 210.691406 150.023438 212.101562 151.492188 213.15625 153.367188 C 214.214844 155.25 214.742188 157.65625 214.742188 160.59375 C 214.742188 165.878906 213.15625 169.691406 209.984375 172.046875 C 206.820312 174.390625 202.761719 175.566406 197.828125 175.566406 Z M 142.160156 124.652344 L 142.160156 250.4375 L 203.121094 250.4375 C 208.75 250.4375 214.246094 249.734375 219.585938 248.320312 C 224.933594 246.917969 229.6875 244.742188 233.859375 241.804688 C 238.03125 238.867188 241.34375 235.085938 243.808594 230.445312 C 246.277344 225.800781 247.511719 220.316406 247.511719 213.96875 C 247.511719 206.105469 245.601562 199.378906 241.789062 193.804688 C 237.964844 188.21875 232.1875 184.316406 224.429688 182.085938 C 230.070312 179.382812 234.332031 175.917969 237.203125 171.6875 C 240.085938 167.460938 241.519531 162.179688 241.519531 155.835938 C 241.519531 149.964844 240.554688 145.03125 238.617188 141.035156 C 236.675781 137.042969 233.949219 133.84375 230.425781 131.4375 C 226.898438 129.027344 222.667969 127.296875 217.742188 126.238281 C 212.808594 125.179688 207.347656 124.652344 201.359375 124.652344 Z M 169.824219 228.949219 L 169.824219 194.417969 L 199.945312 194.417969 C 205.933594 194.417969 210.746094 195.800781 214.390625 198.558594 C 218.035156 201.316406 219.851562 205.925781 219.851562 212.386719 C 219.851562 215.671875 219.292969 218.375 218.179688 220.496094 C 217.0625 222.605469 215.566406 224.277344 213.683594 225.507812 C 211.8125 226.742188 209.636719 227.628906 207.167969 228.15625 C 204.703125 228.683594 202.121094 228.949219 199.417969 228.949219 Z M 169.824219 228.949219 " fill-opacity="1" fill-rule="nonzero"/></svg>