<svg xmlns="http://www.w3.org/2000/svg" xmlns:xlink="http://www.w3.org/1999/xlink" width="500" zoomAndPan="magnify" viewBox="0 0 375 374.999991" height="500" preserveAspectRatio="xMidYMid meet" version="1.0"><defs><clipPath id="d56ecefe6a"><path d="M 94.585938 94.585938 L 280.585938 94.585938 L 280.585938 280.585938 L 94.585938 280.585938 Z M 94.585938 94.585938 " clip-rule="nonzero"/></clipPath></defs><rect x="-37.5" width="450" fill="#ffffff" y="-37.499999" height="449.999989" fill-opacity="1"/><rect x="-37.5" width="450" fill="#f2f2f2" y="-37.499999" height="449.999989" fill-opacity="1"/><g clip-path="url(#d56ecefe6a)"><path fill="#f03c2e" d="M 277.074219 179.304688 L 195.867188 98.097656 C 195.3125 97.539062 194.707031 97.042969 194.054688 96.605469 C 193.398438 96.167969 192.710938 95.800781 191.984375 95.5 C 191.257812 95.199219 190.507812 94.972656 189.738281 94.816406 C 188.964844 94.664062 188.1875 94.585938 187.398438 94.585938 C 186.613281 94.585938 185.835938 94.664062 185.0625 94.816406 C 184.292969 94.972656 183.542969 95.199219 182.816406 95.5 C 182.089844 95.800781 181.398438 96.167969 180.746094 96.605469 C 180.09375 97.042969 179.488281 97.539062 178.929688 98.097656 L 162.074219 114.953125 L 183.464844 136.34375 C 188.441406 134.597656 194.136719 135.789062 198.101562 139.753906 C 199.042969 140.699219 199.839844 141.757812 200.484375 142.925781 C 201.132812 144.09375 201.605469 145.328125 201.902344 146.632812 C 202.199219 147.933594 202.3125 149.25 202.242188 150.585938 C 202.167969 151.917969 201.914062 153.214844 201.476562 154.476562 L 222.09375 175.09375 C 227.082031 173.375 232.835938 174.484375 236.816406 178.476562 C 237.480469 179.140625 238.070312 179.859375 238.59375 180.636719 C 239.113281 181.417969 239.550781 182.238281 239.910156 183.101562 C 240.269531 183.96875 240.539062 184.859375 240.722656 185.777344 C 240.90625 186.695312 240.996094 187.625 240.996094 188.558594 C 240.996094 189.496094 240.90625 190.425781 240.722656 191.34375 C 240.539062 192.261719 240.269531 193.152344 239.910156 194.015625 C 239.554688 194.882812 239.113281 195.703125 238.59375 196.484375 C 238.074219 197.261719 237.480469 197.980469 236.820312 198.644531 C 236.15625 199.304688 235.4375 199.894531 234.660156 200.417969 C 233.878906 200.9375 233.058594 201.375 232.191406 201.734375 C 231.328125 202.089844 230.4375 202.363281 229.519531 202.542969 C 228.597656 202.726562 227.671875 202.816406 226.734375 202.816406 C 225.800781 202.816406 224.871094 202.726562 223.953125 202.542969 C 223.035156 202.359375 222.144531 202.089844 221.277344 201.730469 C 220.414062 201.371094 219.59375 200.929688 218.8125 200.410156 C 218.035156 199.890625 217.316406 199.296875 216.652344 198.636719 C 212.46875 194.449219 211.433594 188.289062 213.550781 183.132812 L 194.324219 163.90625 L 194.324219 214.503906 C 195.726562 215.199219 196.988281 216.097656 198.101562 217.199219 C 198.761719 217.863281 199.351562 218.582031 199.875 219.359375 C 200.394531 220.140625 200.832031 220.960938 201.191406 221.824219 C 201.546875 222.691406 201.820312 223.582031 202 224.5 C 202.183594 225.417969 202.277344 226.34375 202.277344 227.28125 C 202.277344 228.214844 202.183594 229.140625 202 230.058594 C 201.820312 230.976562 201.546875 231.871094 201.191406 232.734375 C 200.832031 233.597656 200.394531 234.421875 199.875 235.199219 C 199.351562 235.976562 198.761719 236.695312 198.101562 237.359375 C 197.4375 238.019531 196.71875 238.609375 195.941406 239.132812 C 195.164062 239.652344 194.339844 240.089844 193.476562 240.449219 C 192.613281 240.804688 191.71875 241.078125 190.800781 241.257812 C 189.882812 241.441406 188.957031 241.53125 188.023438 241.53125 C 187.085938 241.53125 186.160156 241.441406 185.242188 241.257812 C 184.324219 241.078125 183.433594 240.804688 182.566406 240.449219 C 181.703125 240.089844 180.882812 239.652344 180.101562 239.132812 C 179.324219 238.609375 178.605469 238.019531 177.941406 237.359375 C 177.28125 236.695312 176.6875 235.976562 176.167969 235.199219 C 175.648438 234.421875 175.207031 233.601562 174.847656 232.734375 C 174.492188 231.871094 174.21875 230.980469 174.035156 230.0625 C 173.855469 229.144531 173.761719 228.214844 173.761719 227.28125 C 173.761719 226.34375 173.855469 225.417969 174.035156 224.5 C 174.21875 223.578125 174.492188 222.6875 174.847656 221.824219 C 175.207031 220.960938 175.648438 220.136719 176.167969 219.359375 C 176.6875 218.582031 177.28125 217.863281 177.941406 217.199219 C 179.320312 215.828125 180.847656 214.789062 182.609375 214.089844 L 182.609375 163.023438 C 180.914062 162.324219 179.320312 161.296875 177.941406 159.914062 C 177.445312 159.414062 176.988281 158.882812 176.566406 158.320312 C 176.148438 157.753906 175.773438 157.164062 175.441406 156.542969 C 175.113281 155.921875 174.828125 155.28125 174.59375 154.617188 C 174.355469 153.953125 174.171875 153.277344 174.035156 152.589844 C 173.898438 151.898438 173.8125 151.203125 173.78125 150.5 C 173.75 149.796875 173.769531 149.097656 173.839844 148.394531 C 173.910156 147.695312 174.03125 147.007812 174.207031 146.324219 C 174.378906 145.644531 174.601562 144.976562 174.875 144.328125 L 153.773438 123.242188 L 98.089844 178.867188 C 97.535156 179.421875 97.039062 180.027344 96.601562 180.683594 C 96.164062 181.335938 95.792969 182.027344 95.492188 182.753906 C 95.191406 183.480469 94.964844 184.230469 94.808594 185 C 94.65625 185.773438 94.578125 186.550781 94.578125 187.339844 C 94.578125 188.125 94.65625 188.90625 94.808594 189.675781 C 94.964844 190.449219 95.191406 191.199219 95.492188 191.925781 C 95.792969 192.652344 96.164062 193.339844 96.601562 193.996094 C 97.039062 194.648438 97.535156 195.253906 98.089844 195.8125 L 179.304688 277.011719 C 179.859375 277.566406 180.464844 278.0625 181.117188 278.5 C 181.773438 278.9375 182.460938 279.308594 183.1875 279.609375 C 183.914062 279.910156 184.664062 280.136719 185.433594 280.289062 C 186.207031 280.445312 186.984375 280.519531 187.773438 280.519531 C 188.558594 280.519531 189.335938 280.445312 190.109375 280.289062 C 190.878906 280.136719 191.628906 279.910156 192.355469 279.609375 C 193.082031 279.308594 193.773438 278.9375 194.425781 278.5 C 195.078125 278.0625 195.683594 277.566406 196.242188 277.011719 L 277.074219 196.304688 C 277.632812 195.75 278.128906 195.144531 278.566406 194.488281 C 279.003906 193.835938 279.375 193.144531 279.675781 192.417969 C 279.976562 191.691406 280.203125 190.941406 280.355469 190.171875 C 280.511719 189.398438 280.585938 188.621094 280.585938 187.832031 C 280.585938 187.046875 280.511719 186.265625 280.355469 185.496094 C 280.203125 184.722656 279.976562 183.972656 279.675781 183.246094 C 279.375 182.519531 279.003906 181.832031 278.566406 181.175781 C 278.128906 180.523438 277.632812 179.917969 277.074219 179.359375 " fill-opacity="1" fill-rule="nonzero"/></g></svg>