<svg xmlns="http://www.w3.org/2000/svg" xmlns:xlink="http://www.w3.org/1999/xlink" width="500" zoomAndPan="magnify" viewBox="0 0 375 374.999991" height="500" preserveAspectRatio="xMidYMid meet" version="1.0"><defs><clipPath id="d1f3b65d6a"><path d="M 76.40625 76.40625 L 298.40625 76.40625 L 298.40625 298.40625 L 76.40625 298.40625 Z M 76.40625 76.40625 " clip-rule="nonzero"/></clipPath></defs><rect x="-37.5" width="450" fill="#ffffff" y="-37.499999" height="449.999989" fill-opacity="1"/><rect x="-37.5" width="450" fill="#f2f2f2" y="-37.499999" height="449.999989" fill-opacity="1"/><g clip-path="url(#d1f3b65d6a)"><path fill="#000000" d="M 187.40625 76.40625 C 126.195312 76.40625 76.40625 126.203125 76.40625 187.40625 L 119.101562 187.40625 C 119.101562 149.683594 149.683594 119.101562 187.40625 119.101562 C 225.128906 119.101562 255.714844 149.683594 255.714844 187.40625 C 255.714844 225.128906 225.128906 255.714844 187.40625 255.714844 L 187.40625 298.40625 C 248.621094 298.40625 298.40625 248.609375 298.40625 187.40625 C 298.40625 126.203125 248.621094 76.40625 187.40625 76.40625 Z M 187.40625 255.714844 L 187.40625 204.484375 L 136.175781 204.484375 L 136.175781 255.714844 Z M 136.175781 255.714844 L 102.023438 255.714844 L 102.023438 289.867188 L 136.175781 289.867188 Z M 102.023438 255.714844 L 102.023438 230.101562 L 76.40625 230.101562 L 76.40625 255.714844 Z M 102.023438 255.714844 " fill-opacity="1" fill-rule="nonzero"/></g></svg>