<svg xmlns="http://www.w3.org/2000/svg" xmlns:xlink="http://www.w3.org/1999/xlink" width="500" zoomAndPan="magnify" viewBox="0 0 375 374.999991" height="500" preserveAspectRatio="xMidYMid meet" version="1.0"><defs><clipPath id="c763632762"><path d="M 81.058594 71.484375 L 294 71.484375 L 294 303.234375 L 81.058594 303.234375 Z M 81.058594 71.484375 " clip-rule="nonzero"/></clipPath></defs><rect x="-37.5" width="450" fill="#ffffff" y="-37.499999" height="449.999989" fill-opacity="1"/><rect x="-37.5" width="450" fill="#f2f2f2" y="-37.499999" height="449.999989" fill-opacity="1"/><g clip-path="url(#c763632762)"><path fill="#2196f3" d="M 292.710938 73.070312 C 292.25 72.5625 291.707031 72.171875 291.082031 71.898438 C 290.457031 71.621094 289.804688 71.484375 289.121094 71.484375 L 85.992188 71.484375 C 85.652344 71.484375 85.316406 71.519531 84.984375 71.585938 C 84.652344 71.65625 84.332031 71.757812 84.023438 71.894531 C 83.710938 72.03125 83.417969 72.195312 83.144531 72.394531 C 82.871094 72.589844 82.617188 72.816406 82.390625 73.066406 C 82.160156 73.316406 81.960938 73.585938 81.792969 73.878906 C 81.621094 74.171875 81.480469 74.480469 81.375 74.800781 C 81.269531 75.121094 81.199219 75.449219 81.160156 75.785156 C 81.125 76.125 81.121094 76.460938 81.15625 76.796875 L 100.5 269.921875 C 100.546875 270.386719 100.660156 270.832031 100.835938 271.265625 C 101.007812 271.695312 101.242188 272.09375 101.535156 272.457031 C 101.824219 272.820312 102.160156 273.136719 102.542969 273.402344 C 102.925781 273.671875 103.339844 273.878906 103.78125 274.027344 L 190.835938 302.996094 C 191.34375 303.15625 191.863281 303.238281 192.394531 303.234375 C 192.980469 303.234375 193.546875 303.132812 194.097656 302.925781 L 271.476562 273.957031 C 271.902344 273.800781 272.296875 273.589844 272.660156 273.324219 C 273.027344 273.054688 273.347656 272.742188 273.625 272.386719 C 273.902344 272.03125 274.121094 271.644531 274.292969 271.222656 C 274.460938 270.804688 274.566406 270.371094 274.613281 269.921875 L 293.957031 76.796875 C 294.023438 76.117188 293.949219 75.449219 293.730469 74.800781 C 293.511719 74.152344 293.171875 73.574219 292.710938 73.070312 Z M 292.710938 73.070312 " fill-opacity="1" fill-rule="nonzero"/></g><path fill="#fafafa" d="M 192.394531 254.953125 C 191.871094 254.953125 191.363281 254.875 190.863281 254.714844 L 147.335938 240.230469 C 146.515625 239.957031 145.820312 239.496094 145.246094 238.847656 C 144.671875 238.203125 144.296875 237.453125 144.125 236.609375 L 139.289062 212.46875 C 139.226562 212.15625 139.195312 211.84375 139.191406 211.523438 C 139.191406 211.207031 139.21875 210.894531 139.28125 210.582031 C 139.339844 210.269531 139.429688 209.96875 139.550781 209.675781 C 139.671875 209.382812 139.816406 209.101562 139.992188 208.835938 C 140.167969 208.574219 140.367188 208.328125 140.589844 208.101562 C 140.816406 207.878906 141.058594 207.675781 141.320312 207.5 C 141.585938 207.320312 141.863281 207.171875 142.15625 207.046875 C 142.449219 206.925781 142.75 206.832031 143.0625 206.769531 C 143.371094 206.703125 143.6875 206.671875 144.003906 206.671875 C 144.324219 206.667969 144.636719 206.699219 144.949219 206.757812 C 145.261719 206.820312 145.5625 206.910156 145.859375 207.03125 C 146.152344 207.148438 146.433594 207.296875 146.695312 207.472656 C 146.960938 207.648438 147.207031 207.84375 147.433594 208.070312 C 147.660156 208.292969 147.859375 208.535156 148.039062 208.796875 C 148.214844 209.0625 148.367188 209.339844 148.488281 209.632812 C 148.613281 209.921875 148.707031 210.226562 148.769531 210.535156 L 153.054688 231.925781 L 192.296875 245.007812 L 226.789062 232.097656 L 244.683594 129.421875 L 134.355469 129.421875 C 134.039062 129.421875 133.722656 129.390625 133.414062 129.332031 C 133.101562 129.269531 132.800781 129.175781 132.503906 129.054688 C 132.210938 128.933594 131.933594 128.785156 131.667969 128.609375 C 131.40625 128.433594 131.160156 128.234375 130.9375 128.007812 C 130.710938 127.785156 130.511719 127.542969 130.335938 127.277344 C 130.160156 127.015625 130.011719 126.734375 129.886719 126.441406 C 129.765625 126.148438 129.675781 125.847656 129.613281 125.535156 C 129.550781 125.226562 129.519531 124.914062 129.519531 124.59375 C 129.519531 124.277344 129.550781 123.964844 129.613281 123.652344 C 129.675781 123.34375 129.765625 123.039062 129.886719 122.746094 C 130.011719 122.453125 130.160156 122.175781 130.335938 121.914062 C 130.511719 121.648438 130.710938 121.40625 130.9375 121.179688 C 131.160156 120.957031 131.40625 120.757812 131.667969 120.582031 C 131.933594 120.40625 132.210938 120.253906 132.503906 120.132812 C 132.800781 120.011719 133.101562 119.921875 133.414062 119.859375 C 133.722656 119.796875 134.039062 119.765625 134.355469 119.765625 L 250.429688 119.765625 C 250.78125 119.765625 251.132812 119.804688 251.476562 119.878906 C 251.820312 119.957031 252.152344 120.070312 252.472656 120.21875 C 252.792969 120.367188 253.09375 120.546875 253.375 120.761719 C 253.65625 120.976562 253.910156 121.21875 254.136719 121.488281 C 254.363281 121.757812 254.558594 122.046875 254.722656 122.359375 C 254.886719 122.671875 255.011719 123 255.105469 123.339844 C 255.195312 123.679688 255.25 124.023438 255.265625 124.375 C 255.28125 124.730469 255.257812 125.078125 255.199219 125.425781 L 235.851562 236.472656 C 235.707031 237.316406 235.359375 238.066406 234.8125 238.722656 C 234.265625 239.382812 233.589844 239.859375 232.785156 240.160156 L 194.097656 254.644531 C 193.546875 254.851562 192.980469 254.953125 192.394531 254.953125 Z M 192.394531 254.953125 " fill-opacity="1" fill-rule="nonzero"/><path fill="#fafafa" d="M 240.757812 177.703125 L 139.191406 177.703125 C 138.875 177.703125 138.5625 177.671875 138.25 177.613281 C 137.9375 177.550781 137.636719 177.457031 137.34375 177.335938 C 137.046875 177.214844 136.769531 177.066406 136.507812 176.890625 C 136.242188 176.714844 135.996094 176.515625 135.773438 176.289062 C 135.546875 176.066406 135.347656 175.824219 135.171875 175.558594 C 134.996094 175.296875 134.847656 175.015625 134.726562 174.722656 C 134.601562 174.429688 134.511719 174.128906 134.449219 173.816406 C 134.386719 173.507812 134.355469 173.195312 134.355469 172.875 C 134.355469 172.558594 134.386719 172.246094 134.449219 171.933594 C 134.511719 171.625 134.601562 171.320312 134.726562 171.027344 C 134.847656 170.734375 134.996094 170.457031 135.171875 170.195312 C 135.347656 169.929688 135.546875 169.6875 135.773438 169.460938 C 135.996094 169.238281 136.242188 169.039062 136.507812 168.863281 C 136.769531 168.6875 137.046875 168.535156 137.34375 168.414062 C 137.636719 168.292969 137.9375 168.203125 138.25 168.140625 C 138.5625 168.078125 138.875 168.046875 139.191406 168.046875 L 240.757812 168.046875 C 241.074219 168.046875 241.390625 168.078125 241.699219 168.140625 C 242.011719 168.203125 242.316406 168.292969 242.609375 168.414062 C 242.902344 168.535156 243.179688 168.6875 243.445312 168.863281 C 243.707031 169.039062 243.953125 169.238281 244.175781 169.460938 C 244.402344 169.6875 244.601562 169.929688 244.777344 170.195312 C 244.957031 170.457031 245.105469 170.734375 245.226562 171.027344 C 245.347656 171.320312 245.4375 171.625 245.5 171.933594 C 245.5625 172.246094 245.59375 172.558594 245.59375 172.875 C 245.59375 173.195312 245.5625 173.507812 245.5 173.816406 C 245.4375 174.128906 245.347656 174.429688 245.226562 174.722656 C 245.105469 175.015625 244.957031 175.296875 244.777344 175.558594 C 244.601562 175.824219 244.402344 176.066406 244.175781 176.289062 C 243.953125 176.515625 243.707031 176.714844 243.445312 176.890625 C 243.179688 177.066406 242.902344 177.214844 242.609375 177.335938 C 242.316406 177.457031 242.011719 177.550781 241.699219 177.613281 C 241.390625 177.671875 241.074219 177.703125 240.757812 177.703125 Z M 240.757812 177.703125 " fill-opacity="1" fill-rule="nonzero"/></svg>