<svg xmlns="http://www.w3.org/2000/svg" xmlns:xlink="http://www.w3.org/1999/xlink" width="500" zoomAndPan="magnify" viewBox="0 0 375 374.999991" height="500" preserveAspectRatio="xMidYMid meet" version="1.0"><rect x="-37.5" width="450" fill="#ffffff" y="-37.499999" height="449.999989" fill-opacity="1"/><rect x="-37.5" width="450" fill="#f2f2f2" y="-37.499999" height="449.999989" fill-opacity="1"/><path fill="#ffe577" d="M 261.871094 110.957031 C 282.066406 132.679688 283.914062 243.089844 245.582031 263.929688 C 207.253906 284.765625 98.960938 285.65625 98 224.027344 C 97.039062 162.398438 90.8125 109.1875 148.3125 104.308594 C 205.8125 99.429688 241.269531 88.785156 261.871094 110.957031 Z M 261.871094 110.957031 " fill-opacity="1" fill-rule="nonzero"/><path fill="#000000" d="M 269.730469 273.746094 L 107.339844 273.746094 C 105.390625 273.746094 103.808594 272.164062 103.808594 270.21875 L 103.808594 108.015625 C 103.808594 106.070312 105.390625 104.492188 107.339844 104.492188 L 269.730469 104.492188 C 271.679688 104.492188 273.261719 106.070312 273.261719 108.015625 L 273.261719 270.21875 C 273.261719 272.164062 271.679688 273.746094 269.730469 273.746094 Z M 110.871094 266.691406 L 266.199219 266.691406 L 266.199219 111.542969 L 110.871094 111.542969 Z M 172.910156 261.246094 C 167.101562 261.246094 161.71875 259.859375 157.171875 257.144531 C 152.902344 254.578125 149.328125 250.523438 146.851562 245.402344 C 146.058594 243.773438 146.632812 241.8125 148.179688 240.859375 L 160.527344 233.257812 C 161.085938 232.917969 161.71875 232.734375 162.375 232.734375 C 164.496094 232.734375 165.425781 234.335938 165.984375 235.296875 C 167.65625 238.09375 168.589844 239.289062 170.390625 240.191406 C 170.425781 240.105469 171.378906 240.421875 172.566406 240.421875 C 173.925781 240.421875 175.550781 240.085938 176.265625 238.597656 C 176.992188 237.058594 176.929688 231.085938 176.886719 226.71875 L 176.851562 221.796875 L 176.914062 182.566406 C 176.914062 180.621094 178.496094 179.039062 180.445312 179.039062 L 195.652344 179.039062 C 196.632812 179.039062 197.566406 179.449219 198.234375 180.167969 C 198.90625 180.886719 199.246094 181.847656 199.167969 182.820312 L 199.167969 196.925781 C 199.191406 206.210938 199.203125 215.472656 199.152344 224.722656 L 199.195312 228.363281 C 199.316406 235.804688 199.429688 242.828125 196.035156 249.011719 C 193.449219 254.28125 188.324219 258.320312 181.660156 260.238281 C 178.671875 260.917969 175.742188 261.246094 172.910156 261.246094 Z M 154.757812 245.097656 C 156.429688 247.664062 158.484375 249.710938 160.792969 251.101562 C 165.914062 254.144531 172.875 255 179.90625 253.421875 C 183.042969 252.511719 187.496094 250.386719 189.765625 245.777344 C 192.332031 241.078125 192.242188 235.246094 192.128906 228.484375 L 192.085938 224.722656 C 192.144531 215.457031 192.121094 206.210938 192.101562 196.945312 L 192.085938 186.097656 L 183.953125 186.097656 L 183.898438 221.804688 L 183.933594 226.65625 C 184.015625 234.886719 183.988281 239.292969 182.484375 241.898438 C 179.808594 247.496094 173.144531 248.414062 167.777344 246.742188 C 164.464844 245.140625 162.664062 243.1875 161.253906 241.101562 Z M 162.371094 236.636719 L 159.628906 238.425781 Z M 162.53125 236.53125 L 162.582031 236.496094 Z M 231.277344 260.535156 C 221.777344 260.535156 212.300781 257.234375 206.617188 251.5 L 205.121094 249.800781 C 203.328125 247.785156 201.773438 246.042969 200.410156 242.933594 C 199.683594 241.28125 200.328125 239.359375 201.886719 238.460938 L 214.269531 231.359375 C 215.902344 230.4375 217.949219 230.921875 218.980469 232.476562 C 222.136719 237.25 224.488281 239.074219 228.675781 240 C 232.238281 240.421875 235.707031 239.738281 237.132812 238.195312 C 237.402344 237.898438 238.210938 237.023438 237.773438 234.738281 C 237.125 232.671875 232.515625 230.734375 228.066406 228.863281 C 223.746094 227.050781 218.851562 224.992188 214.628906 221.839844 C 209.40625 218.328125 205.804688 212.199219 204.910156 205.132812 C 204.019531 198.117188 205.960938 191.316406 210.253906 186.464844 C 213.191406 182.839844 218.097656 179.929688 223.632812 178.582031 L 228.792969 177.910156 C 238.882812 177.65625 245.867188 180.253906 251.042969 186.050781 C 252.453125 187.417969 253.570312 189.003906 255.347656 191.769531 C 255.855469 192.558594 256.027344 193.53125 255.820312 194.449219 C 255.617188 195.367188 255.042969 196.171875 254.238281 196.664062 C 249.390625 199.683594 249.390625 199.683594 242.425781 204.222656 C 241.566406 204.78125 240.515625 204.941406 239.53125 204.660156 C 238.550781 204.378906 237.730469 203.695312 237.300781 202.769531 C 236.292969 200.628906 234.710938 199.125 232.855469 198.554688 C 231.300781 198.089844 229.445312 198.230469 228.265625 198.90625 C 227.410156 199.398438 227.175781 200.019531 227.078125 200.445312 C 226.921875 201 226.789062 201.425781 227.359375 203.46875 C 227.945312 204.722656 231.285156 206.15625 234.503906 207.546875 C 235.542969 207.988281 236.589844 208.441406 237.613281 208.921875 C 251.445312 214.519531 258.378906 221.347656 259.917969 230.972656 C 259.992188 231.429688 259.972656 231.890625 259.875 232.320312 C 260.480469 237.546875 259.613281 241.355469 258.992188 243.265625 C 256.65625 251.246094 250.144531 256.988281 240.675781 259.386719 C 237.632812 260.167969 234.449219 260.535156 231.277344 260.535156 Z M 208.453125 242.828125 C 208.996094 243.554688 209.625 244.253906 210.386719 245.121094 L 211.800781 246.726562 C 217.46875 252.441406 229.203125 255.035156 238.933594 252.566406 C 242.957031 251.550781 250.03125 248.722656 252.21875 241.246094 C 252.65625 239.894531 253.484375 236.542969 252.628906 231.699219 C 252.566406 231.3125 252.558594 230.929688 252.621094 230.558594 C 251.457031 225.957031 247.886719 220.703125 234.78125 215.394531 C 233.652344 214.871094 232.671875 214.449219 231.703125 214.035156 C 227.226562 212.109375 222.585938 210.113281 220.714844 205.832031 C 219.863281 202.882812 219.574219 200.894531 220.257812 198.636719 C 220.808594 196.269531 222.367188 194.175781 224.71875 192.8125 C 227.601562 191.136719 231.398438 190.753906 234.902344 191.8125 C 237.507812 192.617188 239.78125 194.1875 241.550781 196.367188 C 244.390625 194.519531 245.617188 193.722656 247.390625 192.617188 C 246.863281 191.902344 246.417969 191.402344 245.921875 190.917969 C 241.960938 186.5 237.074219 184.738281 229.300781 184.941406 L 224.898438 185.515625 C 221.289062 186.417969 217.679688 188.503906 215.625 191.027344 C 212.582031 194.46875 211.261719 199.25 211.898438 204.25 C 212.535156 209.230469 215.082031 213.660156 218.703125 216.105469 C 222.375 218.835938 226.65625 220.640625 230.792969 222.375 C 237.152344 225.050781 243.167969 227.582031 244.617188 233.023438 C 244.628906 233.089844 244.644531 233.152344 244.660156 233.214844 C 245.660156 238.109375 243.929688 241.234375 242.308594 242.988281 C 239.25 246.289062 233.835938 247.734375 227.464844 246.953125 C 221.550781 245.65625 217.992188 242.890625 215.003906 239.074219 Z M 208.453125 242.828125 " fill-opacity="1" fill-rule="nonzero"/></svg>