<svg xmlns="http://www.w3.org/2000/svg" xmlns:xlink="http://www.w3.org/1999/xlink" width="500" zoomAndPan="magnify" viewBox="0 0 375 374.999991" height="500" preserveAspectRatio="xMidYMid meet" version="1.0"><defs><clipPath id="d16991b5c9"><path d="M 80.695312 96 L 294.445312 96 L 294.445312 279 L 80.695312 279 Z M 80.695312 96 " clip-rule="nonzero"/></clipPath><clipPath id="ac166f51c3"><path d="M 80.695312 87.492188 L 294.445312 87.492188 L 294.445312 287.742188 L 80.695312 287.742188 Z M 80.695312 87.492188 " clip-rule="nonzero"/></clipPath></defs><rect x="-37.5" width="450" fill="#ffffff" y="-37.499999" height="449.999989" fill-opacity="1"/><rect x="-37.5" width="450" fill="#f2f2f2" y="-37.499999" height="449.999989" fill-opacity="1"/><path fill="#00d8ff" d="M 206.65625 187.441406 C 206.65625 188.066406 206.628906 188.691406 206.566406 189.3125 C 206.503906 189.933594 206.414062 190.550781 206.292969 191.167969 C 206.167969 191.78125 206.015625 192.386719 205.835938 192.984375 C 205.65625 193.582031 205.445312 194.171875 205.203125 194.75 C 204.964844 195.328125 204.699219 195.890625 204.402344 196.441406 C 204.109375 196.996094 203.789062 197.53125 203.441406 198.050781 C 203.09375 198.570312 202.722656 199.070312 202.324219 199.554688 C 201.929688 200.039062 201.507812 200.5 201.066406 200.945312 C 200.625 201.386719 200.164062 201.804688 199.679688 202.203125 C 199.195312 202.597656 198.695312 202.972656 198.175781 203.320312 C 197.65625 203.667969 197.121094 203.988281 196.566406 204.28125 C 196.015625 204.578125 195.453125 204.84375 194.875 205.082031 C 194.296875 205.324219 193.710938 205.535156 193.109375 205.714844 C 192.511719 205.898438 191.90625 206.046875 191.292969 206.171875 C 190.679688 206.292969 190.0625 206.382812 189.441406 206.445312 C 188.820312 206.507812 188.195312 206.539062 187.570312 206.539062 C 186.945312 206.539062 186.320312 206.507812 185.699219 206.445312 C 185.078125 206.382812 184.460938 206.292969 183.847656 206.171875 C 183.234375 206.046875 182.628906 205.898438 182.03125 205.714844 C 181.429688 205.535156 180.84375 205.324219 180.265625 205.082031 C 179.6875 204.84375 179.125 204.578125 178.574219 204.28125 C 178.023438 203.988281 177.484375 203.667969 176.964844 203.320312 C 176.445312 202.972656 175.945312 202.597656 175.460938 202.203125 C 174.976562 201.804688 174.515625 201.386719 174.074219 200.945312 C 173.632812 200.5 173.210938 200.039062 172.816406 199.554688 C 172.417969 199.070312 172.046875 198.570312 171.699219 198.050781 C 171.351562 197.53125 171.03125 196.996094 170.738281 196.441406 C 170.441406 195.890625 170.175781 195.328125 169.9375 194.75 C 169.695312 194.171875 169.488281 193.582031 169.304688 192.984375 C 169.125 192.386719 168.972656 191.78125 168.851562 191.167969 C 168.726562 190.550781 168.636719 189.933594 168.574219 189.3125 C 168.515625 188.691406 168.484375 188.066406 168.484375 187.441406 C 168.484375 186.816406 168.515625 186.191406 168.574219 185.570312 C 168.636719 184.945312 168.726562 184.328125 168.851562 183.714844 C 168.972656 183.101562 169.125 182.496094 169.304688 181.898438 C 169.488281 181.296875 169.695312 180.710938 169.9375 180.132812 C 170.175781 179.554688 170.441406 178.988281 170.738281 178.4375 C 171.03125 177.886719 171.351562 177.351562 171.699219 176.832031 C 172.046875 176.3125 172.417969 175.808594 172.816406 175.324219 C 173.210938 174.84375 173.632812 174.378906 174.074219 173.9375 C 174.515625 173.496094 174.976562 173.074219 175.460938 172.679688 C 175.945312 172.28125 176.445312 171.910156 176.964844 171.5625 C 177.484375 171.214844 178.023438 170.894531 178.574219 170.597656 C 179.125 170.304688 179.6875 170.035156 180.265625 169.796875 C 180.84375 169.558594 181.429688 169.347656 182.03125 169.164062 C 182.628906 168.984375 183.234375 168.832031 183.847656 168.710938 C 184.460938 168.589844 185.078125 168.496094 185.699219 168.433594 C 186.320312 168.375 186.945312 168.34375 187.570312 168.34375 C 188.195312 168.34375 188.820312 168.375 189.441406 168.433594 C 190.0625 168.496094 190.679688 168.589844 191.292969 168.710938 C 191.90625 168.832031 192.511719 168.984375 193.109375 169.164062 C 193.710938 169.347656 194.296875 169.558594 194.875 169.796875 C 195.453125 170.035156 196.015625 170.304688 196.566406 170.597656 C 197.121094 170.894531 197.65625 171.214844 198.175781 171.5625 C 198.695312 171.910156 199.195312 172.28125 199.679688 172.679688 C 200.164062 173.074219 200.625 173.496094 201.066406 173.9375 C 201.507812 174.378906 201.929688 174.84375 202.324219 175.324219 C 202.722656 175.808594 203.09375 176.3125 203.441406 176.832031 C 203.789062 177.351562 204.109375 177.886719 204.402344 178.4375 C 204.699219 178.988281 204.964844 179.554688 205.203125 180.132812 C 205.445312 180.710938 205.65625 181.296875 205.835938 181.898438 C 206.015625 182.496094 206.167969 183.101562 206.292969 183.714844 C 206.414062 184.328125 206.503906 184.945312 206.566406 185.570312 C 206.628906 186.191406 206.65625 186.816406 206.65625 187.441406 Z M 206.65625 187.441406 " fill-opacity="1" fill-rule="nonzero"/><g clip-path="url(#d16991b5c9)"><path stroke-linecap="butt" transform="matrix(0.380475, 0, 0, 0.38067, 85.021053, 96.981733)" fill="none" stroke-linejoin="miter" d="M 269.529522 135.633258 C 336.889801 135.633258 399.455499 145.299596 446.641576 161.533298 C 503.488683 181.101989 538.436769 210.768001 538.436769 237.632622 C 538.436769 265.615748 501.394261 297.128831 440.348045 317.354258 C 394.198913 332.643901 333.470967 340.627352 269.529522 340.627352 C 203.976193 340.627352 141.9033 333.136453 95.230563 317.190074 C 36.186367 297.005693 0.622275 265.082149 0.622275 237.632622 C 0.622275 210.983493 33.989278 181.553495 90.035577 162.015589 C 137.385921 145.504826 201.501902 135.633258 269.529522 135.633258 Z M 269.529522 135.633258 " stroke="#00d8ff" stroke-width="24" stroke-opacity="1" stroke-miterlimit="4"/></g><g clip-path="url(#ac166f51c3)"><path stroke-linecap="butt" transform="matrix(0.380475, 0, 0, 0.38067, 85.021053, 96.981733)" fill="none" stroke-linejoin="miter" d="M 180.742492 186.920262 C 214.386698 128.573343 254.016432 79.194978 291.664678 46.440253 C 337.013003 6.974503 380.164238 -8.479324 403.428739 4.932463 C 427.678851 18.918895 436.467206 66.747772 423.500275 129.732893 C 413.69551 177.356539 390.26674 233.948742 358.316551 289.340348 C 325.57582 346.127519 288.071309 396.152358 250.936401 428.6095 C 203.965927 469.676045 158.545735 484.534705 134.757628 470.815072 C 111.677929 457.516161 102.858773 413.904763 113.926351 355.588627 C 123.279379 306.32314 146.759483 245.852088 180.721959 186.930524 Z M 180.742492 186.920262 " stroke="#00d8ff" stroke-width="24" stroke-opacity="1" stroke-miterlimit="4"/><path stroke-linecap="butt" transform="matrix(0.380475, 0, 0, 0.38067, 85.021053, 96.981733)" fill="none" stroke-linejoin="miter" d="M 180.824626 289.484009 C 147.077753 231.198658 124.100721 172.195002 114.511557 123.227098 C 102.961441 64.233703 111.123523 19.124125 134.377758 5.66103 C 158.597069 -8.366448 204.427931 7.9083 252.517483 50.596163 C 288.872117 82.878859 326.202093 131.436303 358.234417 186.76634 C 391.077815 243.502203 415.69753 300.976895 425.26616 349.349632 C 437.391216 410.559512 427.576183 457.331454 403.818877 471.092133 C 380.759711 484.442351 338.563285 470.301997 293.574298 431.585337 C 255.566714 398.881919 214.900037 348.333743 180.81436 289.473748 Z M 180.824626 289.484009 " stroke="#00d8ff" stroke-width="24" stroke-opacity="1" stroke-miterlimit="4"/></g></svg>