<svg xmlns="http://www.w3.org/2000/svg" xmlns:xlink="http://www.w3.org/1999/xlink" width="500" zoomAndPan="magnify" viewBox="0 0 375 374.999991" height="500" preserveAspectRatio="xMidYMid meet" version="1.0"><rect x="-37.5" width="450" fill="#ffffff" y="-37.499999" height="449.999989" fill-opacity="1"/><rect x="-37.5" width="450" fill="#f2f2f2" y="-37.499999" height="449.999989" fill-opacity="1"/><path fill="#000000" d="M 225.304688 113.300781 C 167.398438 79.246094 93.820312 120.835938 93.179688 187.984375 C 92.554688 253.554688 161.933594 295.910156 219.707031 267.046875 L 156.625 174.222656 L 156.625 231.679688 C 156.625 238.046875 144.445312 238.046875 144.445312 231.679688 L 144.445312 154.652344 C 144.445312 149.597656 153.832031 149.183594 156.492188 153.578125 L 228.390625 262.097656 C 282.402344 227.300781 281.675781 146.449219 225.304688 113.300781 Z M 217.179688 222.039062 L 204.960938 203.375 L 204.960938 152.273438 C 204.960938 147.507812 217.179688 147.507812 217.179688 152.273438 Z M 217.179688 222.039062 " fill-opacity="1" fill-rule="nonzero"/></svg>