<svg xmlns="http://www.w3.org/2000/svg" xmlns:xlink="http://www.w3.org/1999/xlink" width="500" zoomAndPan="magnify" viewBox="0 0 375 374.999991" height="500" preserveAspectRatio="xMidYMid meet" version="1.0"><defs><clipPath id="884a1d0f7d"><path d="M 276 176 L 318 176 L 318 224.773438 L 276 224.773438 Z M 276 176 " clip-rule="nonzero"/></clipPath><clipPath id="247cb48e4a"><path d="M 56 150.523438 L 263 150.523438 L 263 224.773438 L 56 224.773438 Z M 56 150.523438 " clip-rule="nonzero"/></clipPath><clipPath id="94fd2c506d"><path d="M 111 177 L 246 177 L 246 224.773438 L 111 224.773438 Z M 111 177 " clip-rule="nonzero"/></clipPath></defs><rect x="-37.5" width="450" fill="#ffffff" y="-37.499999" height="449.999989" fill-opacity="1"/><rect x="-37.5" width="450" fill="#f2f2f2" y="-37.499999" height="449.999989" fill-opacity="1"/><g clip-path="url(#884a1d0f7d)"><path fill="#83cd29" d="M 297.042969 176.808594 C 296.40625 176.808594 295.789062 176.9375 295.242188 177.25 L 277.929688 187.292969 C 276.8125 187.941406 276.128906 189.164062 276.128906 190.46875 L 276.128906 210.515625 C 276.128906 211.816406 276.8125 213.039062 277.929688 213.691406 L 282.453125 216.308594 C 284.648438 217.394531 285.460938 217.378906 286.457031 217.378906 C 289.710938 217.378906 291.566406 215.394531 291.566406 211.949219 L 291.566406 192.171875 C 291.566406 191.890625 291.328125 191.691406 291.054688 191.691406 L 288.882812 191.691406 C 288.605469 191.691406 288.371094 191.894531 288.371094 192.171875 L 288.371094 211.960938 C 288.371094 213.484375 286.785156 215.023438 284.214844 213.730469 L 279.515625 210.960938 C 279.351562 210.871094 279.222656 210.707031 279.222656 210.519531 L 279.222656 190.472656 C 279.222656 190.28125 279.347656 190.085938 279.515625 189.992188 L 296.792969 179.984375 C 296.953125 179.890625 297.148438 179.890625 297.308594 179.984375 L 314.582031 189.992188 C 314.746094 190.089844 314.875 190.277344 314.875 190.472656 L 314.875 210.519531 C 314.875 210.710938 314.78125 210.90625 314.617188 211 L 297.308594 221.003906 C 297.152344 221.09375 296.949219 221.09375 296.792969 221.003906 L 292.34375 218.347656 C 292.210938 218.269531 292.03125 218.277344 291.90625 218.347656 C 290.675781 219.046875 290.445312 219.128906 289.296875 219.527344 C 289.011719 219.628906 288.578125 219.78125 289.441406 220.269531 L 295.25 223.707031 C 295.800781 224.027344 296.417969 224.1875 297.050781 224.1875 C 297.691406 224.1875 298.296875 224.03125 298.851562 223.707031 L 316.164062 213.699219 C 317.285156 213.046875 317.964844 211.828125 317.964844 210.523438 L 317.964844 190.476562 C 317.964844 189.175781 317.285156 187.953125 316.164062 187.300781 L 298.851562 177.257812 C 298.308594 176.949219 297.6875 176.816406 297.050781 176.816406 Z M 301.675781 191.132812 C 296.746094 191.132812 293.808594 193.242188 293.808594 196.746094 C 293.808594 200.542969 296.722656 201.589844 301.457031 202.0625 C 307.117188 202.617188 307.558594 203.453125 307.558594 204.570312 C 307.558594 206.511719 306.015625 207.339844 302.375 207.339844 C 297.800781 207.339844 296.792969 206.191406 296.457031 203.902344 C 296.417969 203.65625 296.230469 203.460938 295.980469 203.460938 L 293.730469 203.460938 C 293.589844 203.460938 293.46875 203.515625 293.371094 203.613281 C 293.269531 203.714844 293.21875 203.835938 293.21875 203.976562 C 293.21875 206.902344 294.800781 210.363281 302.371094 210.363281 C 307.847656 210.363281 311.007812 208.207031 311.007812 204.417969 C 311.007812 200.671875 308.453125 199.660156 303.140625 198.953125 C 297.777344 198.234375 297.261719 197.890625 297.261719 196.628906 C 297.261719 195.585938 297.695312 194.191406 301.671875 194.191406 C 305.222656 194.191406 306.535156 194.960938 307.074219 197.367188 C 307.121094 197.59375 307.320312 197.777344 307.550781 197.777344 L 309.800781 197.777344 C 309.9375 197.777344 310.070312 197.691406 310.167969 197.59375 C 310.261719 197.484375 310.328125 197.367188 310.316406 197.222656 C 309.96875 193.078125 307.21875 191.128906 301.675781 191.128906 Z M 301.675781 191.132812 " fill-opacity="1" fill-rule="nonzero"/></g><g clip-path="url(#247cb48e4a)"><path fill="#404137" d="M 195.265625 150.527344 C 195.070312 150.527344 194.886719 150.574219 194.714844 150.671875 C 194.351562 150.886719 194.167969 151.207031 194.164062 151.632812 L 194.164062 179.878906 C 194.164062 180.15625 194.035156 180.402344 193.796875 180.542969 C 193.539062 180.691406 193.28125 180.691406 193.023438 180.542969 L 188.429688 177.882812 C 188.089844 177.6875 187.722656 177.585938 187.328125 177.585938 C 186.933594 177.585938 186.566406 177.6875 186.226562 177.882812 L 167.886719 188.515625 C 167.199219 188.914062 166.78125 189.679688 166.78125 190.472656 L 166.78125 211.738281 C 166.78125 212.136719 166.878906 212.503906 167.078125 212.847656 C 167.273438 213.191406 167.542969 213.460938 167.886719 213.660156 L 186.226562 224.292969 C 186.566406 224.492188 186.933594 224.589844 187.328125 224.589844 C 187.722656 224.589844 188.089844 224.492188 188.429688 224.292969 L 206.773438 213.660156 C 207.113281 213.460938 207.382812 213.191406 207.582031 212.847656 C 207.777344 212.503906 207.875 212.136719 207.875 211.738281 L 207.875 158.722656 C 207.875 157.914062 207.4375 157.160156 206.734375 156.765625 L 195.820312 150.632812 C 195.648438 150.539062 195.457031 150.519531 195.265625 150.523438 Z M 77.28125 177.070312 C 76.929688 177.085938 76.601562 177.148438 76.289062 177.328125 L 57.949219 187.960938 C 57.605469 188.160156 57.335938 188.429688 57.140625 188.773438 C 56.941406 189.117188 56.84375 189.484375 56.84375 189.882812 L 56.882812 218.421875 C 56.882812 218.820312 57.085938 219.1875 57.433594 219.382812 C 57.773438 219.585938 58.195312 219.585938 58.535156 219.382812 L 69.414062 213.105469 C 70.105469 212.695312 70.554688 211.980469 70.554688 211.1875 L 70.554688 197.855469 C 70.554688 197.0625 70.972656 196.332031 71.660156 195.9375 L 76.289062 193.242188 C 76.628906 193.042969 77 192.945312 77.390625 192.945312 C 77.785156 192.945312 78.15625 193.042969 78.496094 193.242188 L 83.125 195.9375 C 83.8125 196.332031 84.226562 197.0625 84.226562 197.855469 L 84.226562 211.183594 C 84.226562 211.976562 84.6875 212.695312 85.367188 213.101562 L 96.246094 219.378906 C 96.589844 219.585938 97.007812 219.585938 97.347656 219.378906 C 97.683594 219.183594 97.898438 218.816406 97.898438 218.417969 L 97.9375 189.878906 C 97.9375 189.484375 97.839844 189.113281 97.644531 188.769531 C 97.445312 188.425781 97.175781 188.15625 96.835938 187.960938 L 78.492188 177.332031 C 78.183594 177.148438 77.855469 177.085938 77.5 177.074219 L 77.28125 177.074219 Z M 242.089844 177.328125 C 241.699219 177.328125 241.328125 177.425781 240.988281 177.625 L 222.648438 188.257812 C 221.964844 188.65625 221.542969 189.382812 221.542969 190.179688 L 221.542969 211.445312 C 221.542969 212.242188 221.992188 212.96875 222.683594 213.363281 L 240.878906 223.78125 C 241.550781 224.164062 242.371094 224.195312 243.046875 223.816406 L 254.074219 217.648438 C 254.421875 217.453125 254.660156 217.089844 254.660156 216.691406 C 254.660156 216.289062 254.453125 215.929688 254.109375 215.730469 L 235.65625 205.097656 C 235.3125 204.898438 235.070312 204.5 235.070312 204.101562 L 235.070312 197.449219 C 235.070312 197.054688 235.3125 196.6875 235.65625 196.492188 L 241.390625 193.167969 C 241.730469 192.96875 242.152344 192.96875 242.492188 193.167969 L 248.242188 196.492188 C 248.609375 196.703125 248.792969 197.023438 248.792969 197.449219 L 248.792969 202.691406 C 248.789062 203.121094 248.976562 203.441406 249.34375 203.652344 C 249.6875 203.851562 250.101562 203.851562 250.445312 203.652344 L 261.433594 197.226562 C 262.117188 196.828125 262.539062 196.101562 262.539062 195.308594 L 262.539062 190.175781 C 262.539062 189.78125 262.441406 189.414062 262.242188 189.070312 C 262.046875 188.726562 261.777344 188.457031 261.4375 188.257812 L 243.203125 177.625 C 242.863281 177.425781 242.496094 177.328125 242.101562 177.328125 Z M 187.25 193.207031 C 187.355469 193.207031 187.453125 193.230469 187.546875 193.28125 L 193.832031 196.933594 C 194 197.035156 194.125 197.21875 194.125 197.414062 L 194.125 204.726562 C 194.125 204.921875 194.003906 205.105469 193.832031 205.203125 L 187.546875 208.859375 C 187.375 208.957031 187.164062 208.957031 186.996094 208.859375 L 180.710938 205.203125 C 180.539062 205.105469 180.414062 204.921875 180.414062 204.726562 L 180.414062 197.417969 C 180.414062 197.21875 180.539062 197.035156 180.710938 196.9375 L 186.996094 193.28125 C 187.078125 193.234375 187.15625 193.210938 187.25 193.210938 Z M 187.25 193.207031 " fill-opacity="1" fill-rule="nonzero"/></g><g clip-path="url(#94fd2c506d)"><path fill="#83cd29" d="M 132.375 177.21875 C 131.980469 177.21875 131.613281 177.316406 131.273438 177.515625 L 112.929688 188.109375 C 112.246094 188.507812 111.828125 189.273438 111.828125 190.066406 L 111.828125 211.332031 C 111.828125 211.730469 111.925781 212.097656 112.121094 212.441406 C 112.320312 212.785156 112.589844 213.054688 112.929688 213.253906 L 131.273438 223.886719 C 131.613281 224.085938 131.980469 224.183594 132.375 224.183594 C 132.769531 224.183594 133.136719 224.085938 133.476562 223.886719 L 151.820312 213.253906 C 152.160156 213.054688 152.429688 212.785156 152.628906 212.441406 C 152.824219 212.097656 152.921875 211.730469 152.921875 211.332031 L 152.921875 190.066406 C 152.921875 189.273438 152.503906 188.507812 151.820312 188.113281 L 133.476562 177.515625 C 133.136719 177.316406 132.769531 177.21875 132.375 177.21875 Z M 242.054688 196.195312 C 241.984375 196.195312 241.902344 196.195312 241.835938 196.230469 L 238.308594 198.300781 C 238.164062 198.378906 238.089844 198.503906 238.085938 198.667969 L 238.085938 202.730469 C 238.085938 202.882812 238.175781 203.023438 238.308594 203.101562 L 241.835938 205.128906 C 241.96875 205.214844 242.105469 205.214844 242.238281 205.128906 L 245.765625 203.101562 C 245.898438 203.023438 245.988281 202.882812 245.988281 202.730469 L 245.988281 198.667969 C 245.988281 198.515625 245.898438 198.375 245.765625 198.300781 L 242.238281 196.230469 C 242.171875 196.191406 242.128906 196.195312 242.054688 196.195312 Z M 242.054688 196.195312 " fill-opacity="1" fill-rule="nonzero"/></g></svg>