<svg xmlns="http://www.w3.org/2000/svg" xmlns:xlink="http://www.w3.org/1999/xlink" width="500" zoomAndPan="magnify" viewBox="0 0 375 374.999991" height="500" preserveAspectRatio="xMidYMid meet" version="1.0"><defs><clipPath id="67ace0c9a7"><path d="M 98.578125 111 L 276.328125 111 L 276.328125 312.597656 L 98.578125 312.597656 Z M 98.578125 111 " clip-rule="nonzero"/></clipPath><clipPath id="c4f27f2918"><path d="M 115 62.097656 L 149 62.097656 L 149 96 L 115 96 Z M 115 62.097656 " clip-rule="nonzero"/></clipPath><clipPath id="b5d831a8ce"><path d="M 153 62.097656 L 185 62.097656 L 185 96 L 153 96 Z M 153 62.097656 " clip-rule="nonzero"/></clipPath><clipPath id="5be443edff"><path d="M 189 62.097656 L 228 62.097656 L 228 96 L 189 96 Z M 189 62.097656 " clip-rule="nonzero"/></clipPath><clipPath id="79168de817"><path d="M 232 62.097656 L 261 62.097656 L 261 96 L 232 96 Z M 232 62.097656 " clip-rule="nonzero"/></clipPath></defs><rect x="-37.5" width="450" fill="#ffffff" y="-37.499999" height="449.999989" fill-opacity="1"/><rect x="-37.5" width="450" fill="#f2f2f2" y="-37.499999" height="449.999989" fill-opacity="1"/><g clip-path="url(#67ace0c9a7)"><path fill="#e44d26" d="M 276.28125 111.328125 L 260.101562 292.445312 L 187.378906 312.589844 L 114.855469 292.472656 L 98.695312 111.328125 L 276.277344 111.324219 L 276.285156 111.324219 Z M 276.28125 111.328125 " fill-opacity="1" fill-rule="nonzero"/></g><path fill="#f16529" d="M 187.488281 297.191406 L 246.257812 280.914062 L 260.082031 126.140625 L 187.488281 126.136719 Z M 187.488281 297.191406 " fill-opacity="1" fill-rule="nonzero"/><path fill="#ebebeb" d="M 156.039062 170.570312 L 187.488281 170.570312 L 187.488281 148.351562 L 131.742188 148.351562 L 132.273438 154.3125 L 137.738281 215.535156 L 187.488281 215.535156 L 187.488281 193.324219 L 158.070312 193.324219 Z M 156.039062 170.570312 " fill-opacity="1" fill-rule="nonzero"/><path fill="#ebebeb" d="M 161.046875 226.644531 L 138.730469 226.644531 L 141.84375 261.53125 L 187.382812 274.164062 L 187.488281 274.136719 L 187.488281 251.019531 L 187.390625 251.050781 L 162.632812 244.363281 Z M 161.046875 226.644531 " fill-opacity="1" fill-rule="nonzero"/><g clip-path="url(#c4f27f2918)"><path fill="#000000" d="M 115.21875 62.097656 L 126.515625 62.097656 L 126.515625 73.253906 L 136.851562 73.253906 L 136.851562 62.097656 L 148.148438 62.097656 L 148.148438 95.878906 L 136.851562 95.878906 L 136.851562 84.566406 L 126.515625 84.566406 L 126.515625 95.878906 L 115.21875 95.878906 Z M 115.21875 62.097656 " fill-opacity="1" fill-rule="nonzero"/></g><g clip-path="url(#b5d831a8ce)"><path fill="#000000" d="M 163.007812 73.300781 L 153.0625 73.300781 L 153.0625 62.097656 L 184.257812 62.097656 L 184.257812 73.300781 L 174.304688 73.300781 L 174.304688 95.878906 L 163.007812 95.878906 Z M 163.007812 73.300781 " fill-opacity="1" fill-rule="nonzero"/></g><g clip-path="url(#5be443edff)"><path fill="#000000" d="M 189.207031 62.097656 L 200.988281 62.097656 L 208.234375 73.96875 L 215.472656 62.097656 L 227.257812 62.097656 L 227.257812 95.878906 L 216.007812 95.878906 L 216.007812 79.136719 L 208.234375 91.144531 L 208.039062 91.144531 L 200.261719 79.136719 L 200.261719 95.878906 L 189.207031 95.878906 Z M 189.207031 62.097656 " fill-opacity="1" fill-rule="nonzero"/></g><g clip-path="url(#79168de817)"><path fill="#000000" d="M 232.882812 62.097656 L 244.183594 62.097656 L 244.183594 84.714844 L 260.074219 84.714844 L 260.074219 95.878906 L 232.882812 95.878906 Z M 232.882812 62.097656 " fill-opacity="1" fill-rule="nonzero"/></g><path fill="#ffffff" d="M 187.414062 215.535156 L 214.792969 215.535156 L 212.207031 244.351562 L 187.414062 251.042969 L 187.414062 274.152344 L 232.988281 261.53125 L 233.324219 257.777344 L 238.550781 199.285156 L 239.09375 193.324219 L 187.414062 193.324219 Z M 187.414062 215.535156 " fill-opacity="1" fill-rule="nonzero"/><path fill="#ffffff" d="M 187.414062 170.515625 L 187.414062 170.570312 L 241.113281 170.570312 L 241.558594 165.574219 L 242.574219 154.3125 L 243.101562 148.351562 L 187.414062 148.351562 Z M 187.414062 170.515625 " fill-opacity="1" fill-rule="nonzero"/></svg>