<svg xmlns="http://www.w3.org/2000/svg" xmlns:xlink="http://www.w3.org/1999/xlink" width="500" zoomAndPan="magnify" viewBox="0 0 375 374.999991" height="500" preserveAspectRatio="xMidYMid meet" version="1.0"><defs><clipPath id="40b0241293"><path d="M 190 223 L 273 223 L 273 286.394531 L 190 286.394531 Z M 190 223 " clip-rule="nonzero"/></clipPath><clipPath id="5d62ba65cd"><path d="M 102 223 L 184 223 L 184 286.394531 L 102 286.394531 Z M 102 223 " clip-rule="nonzero"/></clipPath><clipPath id="724be219dc"><path d="M 96.570312 141 L 127 141 L 127 237 L 96.570312 237 Z M 96.570312 141 " clip-rule="nonzero"/></clipPath><clipPath id="600ad196a5"><path d="M 100 88.394531 L 184 88.394531 L 184 152 L 100 152 Z M 100 88.394531 " clip-rule="nonzero"/></clipPath><clipPath id="3a9a9446e7"><path d="M 190 88.394531 L 275 88.394531 L 275 152 L 190 152 Z M 190 88.394531 " clip-rule="nonzero"/></clipPath></defs><rect x="-37.5" width="450" fill="#ffffff" y="-37.499999" height="449.999989" fill-opacity="1"/><rect x="-37.5" width="450" fill="#f2f2f2" y="-37.499999" height="449.999989" fill-opacity="1"/><path fill="#000000" d="M 107.957031 137.945312 L 107.964844 137.9375 L 107.957031 137.9375 Z M 107.957031 137.945312 " fill-opacity="1" fill-rule="nonzero"/><path fill="#1b75bb" d="M 190.898438 243 L 241.003906 215.875 L 241.003906 162.140625 L 190.898438 190.621094 Z M 190.898438 243 " fill-opacity="1" fill-rule="nonzero"/><path fill="#8ad0f3" d="M 277.988281 141.113281 L 248.15625 158.058594 L 248.15625 219.066406 L 277.988281 236.035156 Z M 277.988281 141.113281 " fill-opacity="1" fill-rule="nonzero"/><path fill="#1b75bb" d="M 237.640625 155.921875 L 187.335938 128.679688 L 137.035156 155.921875 L 187.335938 184.507812 Z M 237.640625 155.921875 " fill-opacity="1" fill-rule="nonzero"/><g clip-path="url(#40b0241293)"><path fill="#8ad0f3" d="M 241.695312 223.53125 L 190.898438 251.035156 L 190.898438 286.394531 L 272.414062 241.003906 Z M 241.695312 223.53125 " fill-opacity="1" fill-rule="nonzero"/></g><g clip-path="url(#5d62ba65cd)"><path fill="#8ad0f3" d="M 183.75 251.035156 L 132.960938 223.53125 L 102.234375 241.003906 L 183.75 286.394531 Z M 183.75 251.035156 " fill-opacity="1" fill-rule="nonzero"/></g><g clip-path="url(#724be219dc)"><path fill="#8ad0f3" d="M 96.65625 236.035156 L 126.484375 219.066406 L 126.484375 158.058594 L 96.65625 141.113281 Z M 96.65625 236.035156 " fill-opacity="1" fill-rule="nonzero"/></g><g clip-path="url(#600ad196a5)"><path fill="#8ad0f3" d="M 129.78125 151.804688 L 183.742188 122.582031 L 183.742188 88.394531 L 100.148438 134.957031 Z M 129.78125 151.804688 " fill-opacity="1" fill-rule="nonzero"/></g><path fill="#1b75bb" d="M 183.75 190.621094 L 133.648438 162.140625 L 133.648438 215.875 L 183.75 243 Z M 183.75 190.621094 " fill-opacity="1" fill-rule="nonzero"/><g clip-path="url(#3a9a9446e7)"><path fill="#8ad0f3" d="M 190.898438 122.582031 L 244.859375 151.8125 L 274.5 134.957031 L 190.898438 88.394531 Z M 190.898438 122.582031 " fill-opacity="1" fill-rule="nonzero"/></g></svg>