<svg xmlns="http://www.w3.org/2000/svg" xmlns:xlink="http://www.w3.org/1999/xlink" width="500" zoomAndPan="magnify" viewBox="0 0 375 374.999991" height="500" preserveAspectRatio="xMidYMid meet" version="1.0"><defs><clipPath id="b241814721"><path d="M 90.480469 90.480469 L 284.730469 90.480469 L 284.730469 284.730469 L 90.480469 284.730469 Z M 90.480469 90.480469 " clip-rule="nonzero"/></clipPath></defs><rect x="-37.5" width="450" fill="#ffffff" y="-37.499999" height="449.999989" fill-opacity="1"/><rect x="-37.5" width="450" fill="#f2f2f2" y="-37.499999" height="449.999989" fill-opacity="1"/><g clip-path="url(#b241814721)"><path fill="#007acc" d="M 90.480469 284.730469 L 284.730469 284.730469 L 284.730469 90.480469 L 90.480469 90.480469 Z M 90.480469 284.730469 " fill-opacity="1" fill-rule="nonzero"/></g><path fill="#ffffff" d="M 133.429688 188.242188 L 133.367188 196.203125 L 158.652344 196.203125 L 158.652344 268.046875 L 176.535156 268.046875 L 176.535156 196.203125 L 201.816406 196.203125 L 201.816406 188.402344 C 201.816406 184.085938 201.726562 180.472656 201.601562 180.382812 C 201.511719 180.261719 186.125 180.199219 167.46875 180.230469 L 133.519531 180.320312 Z M 133.429688 188.242188 " fill-opacity="1" fill-rule="nonzero"/><path fill="#ffffff" d="M 247.222656 180.101562 C 252.15625 181.332031 255.921875 183.523438 259.371094 187.097656 C 261.15625 189.011719 263.8125 192.492188 264.023438 193.328125 C 264.085938 193.578125 255.640625 199.246094 250.515625 202.425781 C 250.335938 202.546875 249.597656 201.742188 248.765625 200.511719 C 246.269531 196.871094 243.644531 195.300781 239.636719 195.027344 C 233.75 194.625 229.953125 197.707031 229.984375 202.859375 C 229.984375 204.367188 230.203125 205.261719 230.820312 206.492188 C 232.117188 209.179688 234.523438 210.78125 242.070312 214.050781 C 255.980469 220.027344 261.929688 223.976562 265.632812 229.589844 C 269.761719 235.851562 270.6875 245.835938 267.878906 253.265625 C 264.796875 261.34375 257.148438 266.832031 246.390625 268.652344 C 243.058594 269.238281 235.167969 269.144531 231.585938 268.5 C 223.785156 267.113281 216.386719 263.257812 211.828125 258.203125 C 210.035156 256.230469 206.554688 251.078125 206.765625 250.707031 C 206.863281 250.585938 207.660156 250.09375 208.554688 249.570312 C 209.421875 249.074219 212.691406 247.195312 215.773438 245.402344 L 221.351562 242.171875 L 222.527344 243.894531 C 224.15625 246.390625 227.738281 249.8125 229.894531 250.957031 C 236.09375 254.21875 244.597656 253.757812 248.796875 250 C 250.585938 248.363281 251.320312 246.671875 251.320312 244.175781 C 251.320312 241.921875 251.046875 240.933594 249.871094 239.242188 C 248.363281 237.078125 245.28125 235.257812 236.527344 231.472656 C 226.5 227.152344 222.183594 224.46875 218.238281 220.210938 C 215.953125 217.746094 213.800781 213.800781 212.90625 210.5 C 212.160156 207.757812 211.980469 200.886719 212.5625 198.109375 C 214.632812 188.425781 221.941406 181.671875 232.480469 179.667969 C 235.902344 179.023438 243.863281 179.265625 247.222656 180.101562 Z M 247.222656 180.101562 " fill-opacity="1" fill-rule="nonzero"/></svg>