<svg xmlns="http://www.w3.org/2000/svg" xmlns:xlink="http://www.w3.org/1999/xlink" width="500" zoomAndPan="magnify" viewBox="0 0 375 374.999991" height="500" preserveAspectRatio="xMidYMid meet" version="1.0"><defs><clipPath id="633c540e4d"><path d="M 186 87.1875 L 233 87.1875 L 233 262 L 186 262 Z M 186 87.1875 " clip-rule="nonzero"/></clipPath><clipPath id="b360d9a4d0"><path d="M 142 87.1875 L 189 87.1875 L 189 263 L 142 263 Z M 142 87.1875 " clip-rule="nonzero"/></clipPath><clipPath id="0c8afaf76c"><path d="M 183 237 L 196 237 L 196 287.4375 L 183 287.4375 Z M 183 237 " clip-rule="nonzero"/></clipPath></defs><rect x="-37.5" width="450" fill="#ffffff" y="-37.499999" height="449.999989" fill-opacity="1"/><rect x="-37.5" width="450" fill="#f2f2f2" y="-37.499999" height="449.999989" fill-opacity="1"/><g clip-path="url(#633c540e4d)"><path fill="#599636" d="M 187.007812 87.734375 L 192.339844 97.769531 C 193.539062 99.621094 194.839844 101.261719 196.371094 102.789062 C 200.835938 107.261719 205.078125 111.949219 208.886719 116.96875 C 217.921875 128.859375 224.019531 142.0625 228.371094 156.34375 C 230.984375 165.066406 232.402344 174.015625 232.507812 183.0625 C 232.945312 210.117188 223.6875 233.34375 205.027344 252.652344 C 201.976562 255.703125 198.71875 258.535156 195.21875 261.050781 C 193.371094 261.050781 192.496094 259.628906 191.734375 258.320312 C 190.316406 255.921875 189.449219 253.1875 189.011719 250.46875 C 188.355469 247.195312 187.925781 243.921875 188.136719 240.542969 L 188.136719 239.015625 C 187.988281 238.691406 186.359375 88.503906 187.007812 87.734375 Z M 187.007812 87.734375 " fill-opacity="1" fill-rule="nonzero"/></g><g clip-path="url(#b360d9a4d0)"><path fill="#6cac48" d="M 187.007812 87.402344 C 186.789062 86.960938 186.570312 87.292969 186.351562 87.507812 C 186.457031 89.699219 185.695312 91.648438 184.503906 93.515625 C 183.191406 95.367188 181.453125 96.789062 179.710938 98.316406 C 170.03125 106.710938 162.410156 116.855469 156.308594 128.203125 C 148.191406 143.472656 144.003906 159.835938 142.820312 177.0625 C 142.273438 183.277344 144.78125 205.203125 146.734375 211.53125 C 152.070312 228.328125 161.648438 242.402344 174.058594 254.617188 C 177.109375 257.558594 180.367188 260.285156 183.742188 262.90625 C 184.722656 262.90625 184.828125 262.03125 185.050781 261.378906 C 185.484375 259.984375 185.808594 258.566406 186.03125 257.125 L 188.21875 240.765625 Z M 187.007812 87.402344 " fill-opacity="1" fill-rule="nonzero"/></g><g clip-path="url(#0c8afaf76c)"><path fill="#c2bfbf" d="M 192.339844 267.695312 C 192.558594 265.191406 193.757812 263.113281 195.0625 261.042969 C 193.753906 260.5 192.777344 259.414062 192.015625 258.207031 C 191.359375 257.117188 190.816406 255.8125 190.390625 254.609375 C 188.867188 250.027344 188.542969 245.222656 188.105469 240.542969 L 188.105469 237.707031 C 187.5625 238.144531 187.449219 241.851562 187.449219 242.402344 C 187.132812 247.355469 186.480469 252.261719 185.488281 257.125 C 185.164062 259.089844 184.945312 261.050781 183.742188 262.792969 C 183.742188 263.015625 183.742188 263.234375 183.847656 263.558594 C 185.808594 269.339844 186.34375 275.230469 186.675781 281.230469 L 186.675781 283.421875 C 186.675781 286.035156 186.570312 285.484375 188.738281 286.363281 C 189.613281 286.6875 190.585938 286.800781 191.460938 287.449219 C 192.117188 287.449219 192.222656 286.90625 192.222656 286.46875 L 191.898438 282.871094 L 191.898438 272.832031 C 191.792969 271.082031 192.117188 269.339844 192.335938 267.699219 Z M 192.339844 267.695312 " fill-opacity="1" fill-rule="nonzero"/></g></svg>